<svg width="76" height="30" viewBox="0 0 76 30" fill="none" xmlns="http://www.w3.org/2000/svg">
<path d="M11.8468 6.72103C12.7025 6.43573 13.6152 6.28357 14.5622 6.28357C18.7075 6.28357 22.1683 9.22782 22.9593 13.1421L28.835 11.9438C27.4887 5.29455 21.6092 0.288574 14.5622 0.288574C12.9459 0.288574 11.3981 0.551046 9.94531 1.03795L11.8468 6.72103Z" fill="#FFCB05"/>
<path d="M4.91353 25.7636L8.8877 21.2712C7.11549 19.7001 5.99739 17.4064 5.99739 14.8501C5.99739 12.2977 7.11549 10.0039 8.8877 8.43668L4.91353 3.94043C1.90152 6.61079 0 10.5098 0 14.8501C0 19.1942 1.90152 23.0932 4.91353 25.7636" fill="#00A4E0"/>
<path d="M22.9593 16.5695C22.1645 20.4799 18.7075 23.4203 14.566 23.4203C13.6152 23.4203 12.6987 23.2682 11.8468 22.9791L9.94531 28.6698C11.3981 29.1529 12.9497 29.4153 14.566 29.4153C21.6054 29.4153 27.4811 24.417 28.835 17.7753L22.9593 16.5695Z" fill="#EF4123"/>
<path d="M33.9726 21.4574C33.7787 21.1455 33.5201 20.6472 33.3603 20.2782C32.4286 18.1175 32.3868 15.8808 33.1702 13.7354C34.0335 11.3808 35.684 9.58151 37.8175 8.66096C40.4987 7.50837 43.4612 7.7328 46.0321 9.25818C47.6636 10.1939 48.8197 11.6394 49.6982 13.686C49.8085 13.9484 49.9074 14.2261 50.0063 14.4658L33.9726 21.4574ZM39.3273 12.134C37.422 12.9518 36.4408 14.7396 36.6462 16.8318L44.7086 13.3588C43.3205 11.7307 41.5179 11.1906 39.3273 12.134V12.134ZM45.7126 19.6886C45.7088 19.6886 45.7088 19.6924 45.7088 19.6924L45.5415 19.5783C45.0585 20.3581 44.3093 20.9933 43.3623 21.4041C41.5597 22.1878 39.8902 21.9861 38.6884 20.9325L38.5781 21.0998C38.5781 21.0998 38.5781 21.096 38.5743 21.096L36.5283 24.1582C37.0379 24.512 37.5817 24.8087 38.1522 25.0483C40.4112 25.9879 42.7234 25.9422 45.0015 24.9532C46.6482 24.2381 47.9412 23.1501 48.8235 21.7693L45.7126 19.6886ZM55.6081 4.1571V21.1759L58.255 22.2486L56.7528 25.7558L53.8321 24.5386C53.178 24.2533 52.7292 23.8196 52.3946 23.3289C52.0713 22.8306 51.8317 22.1421 51.8317 21.2216V4.1571H55.6081ZM62.4612 16.8432C62.4612 15.3939 63.1039 14.093 64.1155 13.2105L61.4002 10.1825C59.5595 11.8106 58.3996 14.1881 58.3996 16.8356C58.3958 19.487 59.5557 21.8682 61.3926 23.4963L64.1041 20.4684C63.0963 19.5821 62.4612 18.2887 62.4612 16.8432V16.8432ZM67.2835 21.6704C66.751 21.6704 66.2338 21.5791 65.7546 21.4194L64.4578 25.2727C65.3439 25.5694 66.2909 25.733 67.2797 25.733C71.5771 25.7368 75.1634 22.6861 75.9962 18.6349L72.0106 17.8208C71.5581 20.0233 69.6147 21.6742 67.2835 21.6704V21.6704ZM67.2949 7.95343C66.3099 7.95343 65.3629 8.1132 64.4768 8.4061L65.7622 12.2633C66.2452 12.1035 66.7586 12.016 67.2911 12.016C69.6261 12.0198 71.5733 13.6784 72.0144 15.8846L76 15.0782C75.1824 11.0194 71.5961 7.95723 67.2949 7.95343V7.95343Z" fill="white"/>
</svg>
